<svg width="300" height="50" viewBox="0 0 300 50" fill="none" xmlns="http://www.w3.org/2000/svg">
<path d="M58.4465 25.2023H53.9105V34.1663H52.5335V15.2663H53.9105V23.9603H58.4735L65.2505 15.2663H66.7895L59.5535 24.4733L67.2755 34.1663H65.6555L58.4465 25.2023ZM75.7683 19.9643C77.0823 19.9643 78.2703 20.2703 79.3323 20.8823C80.3943 21.4943 81.2223 22.3403 81.8163 23.4203C82.4283 24.5003 82.7343 25.7333 82.7343 27.1193C82.7343 28.5053 82.4283 29.7473 81.8163 30.8453C81.2223 31.9253 80.3943 32.7713 79.3323 33.3833C78.2703 33.9773 77.0823 34.2743 75.7683 34.2743C74.5263 34.2743 73.4013 33.9863 72.3933 33.4103C71.3853 32.8163 70.6023 31.9973 70.0443 30.9533V39.4043H68.6943V20.0723H69.9903V23.3933C70.5483 22.3133 71.3313 21.4763 72.3393 20.8823C73.3653 20.2703 74.5083 19.9643 75.7683 19.9643ZM75.6873 33.0593C76.7673 33.0593 77.7393 32.8073 78.6033 32.3033C79.4673 31.7993 80.1423 31.0973 80.6283 30.1973C81.1323 29.2973 81.3843 28.2713 81.3843 27.1193C81.3843 25.9673 81.1323 24.9413 80.6283 24.0413C80.1423 23.1413 79.4673 22.4393 78.6033 21.9353C77.7393 21.4313 76.7673 21.1793 75.6873 21.1793C74.6073 21.1793 73.6353 21.4313 72.7713 21.9353C71.9253 22.4393 71.2503 23.1413 70.7463 24.0413C70.2603 24.9413 70.0173 25.9673 70.0173 27.1193C70.0173 28.2713 70.2603 29.2973 70.7463 30.1973C71.2503 31.0973 71.9253 31.7993 72.7713 32.3033C73.6353 32.8073 74.6073 33.0593 75.6873 33.0593ZM90.7963 25.2023C92.5423 25.2203 93.8743 25.6073 94.7923 26.3633C95.7103 27.1013 96.1693 28.1903 96.1693 29.6303C96.1693 31.1243 95.6833 32.2673 94.7113 33.0593C93.7393 33.8513 92.3353 34.2383 90.4993 34.2203L85.2343 34.1663V20.0723H86.5843V25.1483L90.7963 25.2023ZM98.7613 20.0723H100.111V34.1663H98.7613V20.0723ZM90.4453 33.1403C91.8853 33.1583 92.9743 32.8703 93.7123 32.2763C94.4503 31.6823 94.8193 30.8003 94.8193 29.6303C94.8193 28.4963 94.4593 27.6593 93.7393 27.1193C93.0193 26.5613 91.9213 26.2643 90.4453 26.2283L86.5843 26.2013V33.0863L90.4453 33.1403ZM119.352 20.0723V34.1663H118.11V22.2323L111.981 32.3573H111.36L105.258 22.2593V34.1663H104.016V20.0723H105.339L111.711 30.7373L118.11 20.0723H119.352ZM127.69 15.1313C129.436 15.1313 131.011 15.5453 132.415 16.3733C133.837 17.2013 134.953 18.3533 135.763 19.8293C136.573 21.2873 136.978 22.9163 136.978 24.7163C136.978 26.5163 136.573 28.1543 135.763 29.6303C134.953 31.0883 133.837 32.2313 132.415 33.0593C131.011 33.8873 129.436 34.3013 127.69 34.3013C126.268 34.3013 124.954 34.0853 123.748 33.6533C122.56 33.2033 121.552 32.5463 120.724 31.6823L121.588 30.7643C123.118 32.2763 125.134 33.0323 127.636 33.0323C129.076 33.0323 130.39 32.6903 131.578 32.0063C132.766 31.3223 133.711 30.3773 134.413 29.1713C135.133 27.9473 135.52 26.5883 135.574 25.0943H125.341V23.9333H135.547C135.439 22.4933 135.025 21.2063 134.305 20.0723C133.585 18.9203 132.64 18.0203 131.47 17.3723C130.318 16.7243 129.04 16.4003 127.636 16.4003C125.17 16.4003 123.154 17.1563 121.588 18.6683L120.724 17.7773C121.552 16.9133 122.56 16.2563 123.748 15.8063C124.954 15.3563 126.268 15.1313 127.69 15.1313ZM144.513 27.6323H141.084V34.1663H139.734V20.0723H141.084V26.4713H144.513L149.832 20.0723H151.317L145.593 26.9033L151.749 34.1663H150.129L144.513 27.6323ZM158.305 34.2743C156.973 34.2743 155.767 33.9683 154.687 33.3563C153.625 32.7443 152.788 31.8983 152.176 30.8183C151.564 29.7203 151.258 28.4873 151.258 27.1193C151.258 25.7513 151.564 24.5273 152.176 23.4473C152.788 22.3493 153.625 21.4943 154.687 20.8823C155.767 20.2703 156.973 19.9643 158.305 19.9643C159.637 19.9643 160.834 20.2703 161.896 20.8823C162.976 21.4943 163.822 22.3493 164.434 23.4473C165.046 24.5273 165.352 25.7513 165.352 27.1193C165.352 28.4873 165.046 29.7203 164.434 30.8183C163.822 31.8983 162.976 32.7443 161.896 33.3563C160.834 33.9683 159.637 34.2743 158.305 34.2743ZM158.305 33.0593C159.385 33.0593 160.348 32.8073 161.194 32.3033C162.058 31.7993 162.733 31.0973 163.219 30.1973C163.723 29.2973 163.975 28.2713 163.975 27.1193C163.975 25.9673 163.723 24.9413 163.219 24.0413C162.733 23.1413 162.058 22.4393 161.194 21.9353C160.348 21.4313 159.385 21.1793 158.305 21.1793C157.225 21.1793 156.253 21.4313 155.389 21.9353C154.543 22.4393 153.868 23.1413 153.364 24.0413C152.878 24.9413 152.635 25.9673 152.635 27.1193C152.635 28.2713 152.878 29.2973 153.364 30.1973C153.868 31.0973 154.543 31.7993 155.389 32.3033C156.253 32.8073 157.225 33.0593 158.305 33.0593ZM177.877 16.5083H171.073V34.1663H169.696V16.5083H162.892V15.2663H177.877V16.5083ZM189.717 27.4433H177.594C177.63 28.5413 177.909 29.5223 178.431 30.3863C178.953 31.2323 179.655 31.8893 180.537 32.3573C181.437 32.8253 182.445 33.0593 183.561 33.0593C184.479 33.0593 185.325 32.8973 186.099 32.5733C186.891 32.2313 187.548 31.7363 188.07 31.0883L188.853 31.9793C188.241 32.7173 187.467 33.2843 186.531 33.6803C185.613 34.0763 184.614 34.2743 183.534 34.2743C182.13 34.2743 180.879 33.9683 179.781 33.3563C178.683 32.7443 177.819 31.8983 177.189 30.8183C176.577 29.7383 176.271 28.5053 176.271 27.1193C176.271 25.7513 176.559 24.5273 177.135 23.4473C177.729 22.3493 178.539 21.4943 179.565 20.8823C180.591 20.2703 181.743 19.9643 183.021 19.9643C184.299 19.9643 185.442 20.2703 186.45 20.8823C187.476 21.4763 188.277 22.3133 188.853 23.3933C189.447 24.4733 189.744 25.6973 189.744 27.0653L189.717 27.4433ZM183.021 21.1523C182.031 21.1523 181.14 21.3773 180.348 21.8273C179.556 22.2593 178.917 22.8803 178.431 23.6903C177.963 24.4823 177.693 25.3823 177.621 26.3903H188.421C188.367 25.3823 188.097 24.4823 187.611 23.6903C187.125 22.8983 186.486 22.2773 185.694 21.8273C184.902 21.3773 184.011 21.1523 183.021 21.1523ZM200.699 34.1663L195.866 27.8753L191.033 34.1663H189.494L195.083 26.9033L189.791 20.0723H191.33L195.866 25.9313L200.402 20.0723H201.914L196.622 26.9033L202.292 34.1663H200.699ZM212.329 34.3013C210.475 34.3013 208.801 33.8873 207.307 33.0593C205.831 32.2313 204.661 31.0883 203.797 29.6303C202.951 28.1723 202.528 26.5343 202.528 24.7163C202.528 22.8983 202.951 21.2603 203.797 19.8023C204.661 18.3443 205.831 17.2013 207.307 16.3733C208.801 15.5453 210.475 15.1313 212.329 15.1313C213.697 15.1313 214.957 15.3563 216.109 15.8063C217.261 16.2383 218.242 16.8863 219.052 17.7503L218.188 18.6413C216.676 17.1473 214.741 16.4003 212.383 16.4003C210.799 16.4003 209.359 16.7603 208.063 17.4803C206.767 18.2003 205.75 19.1993 205.012 20.4773C204.274 21.7373 203.905 23.1503 203.905 24.7163C203.905 26.2823 204.274 27.7043 205.012 28.9823C205.75 30.2423 206.767 31.2323 208.063 31.9523C209.359 32.6723 210.799 33.0323 212.383 33.0323C214.723 33.0323 216.658 32.2763 218.188 30.7643L219.052 31.6553C218.242 32.5193 217.252 33.1763 216.082 33.6263C214.93 34.0763 213.679 34.3013 212.329 34.3013ZM232.483 27.4433H220.36C220.396 28.5413 220.675 29.5223 221.197 30.3863C221.719 31.2323 222.421 31.8893 223.303 32.3573C224.203 32.8253 225.211 33.0593 226.327 33.0593C227.245 33.0593 228.091 32.8973 228.865 32.5733C229.657 32.2313 230.314 31.7363 230.836 31.0883L231.619 31.9793C231.007 32.7173 230.233 33.2843 229.297 33.6803C228.379 34.0763 227.38 34.2743 226.3 34.2743C224.896 34.2743 223.645 33.9683 222.547 33.3563C221.449 32.7443 220.585 31.8983 219.955 30.8183C219.343 29.7383 219.037 28.5053 219.037 27.1193C219.037 25.7513 219.325 24.5273 219.901 23.4473C220.495 22.3493 221.305 21.4943 222.331 20.8823C223.357 20.2703 224.509 19.9643 225.787 19.9643C227.065 19.9643 228.208 20.2703 229.216 20.8823C230.242 21.4763 231.043 22.3133 231.619 23.3933C232.213 24.4733 232.51 25.6973 232.51 27.0653L232.483 27.4433ZM225.787 21.1523C224.797 21.1523 223.906 21.3773 223.114 21.8273C222.322 22.2593 221.683 22.8803 221.197 23.6903C220.729 24.4823 220.459 25.3823 220.387 26.3903H231.187C231.133 25.3823 230.863 24.4823 230.377 23.6903C229.891 22.8983 229.252 22.2773 228.46 21.8273C227.668 21.3773 226.777 21.1523 225.787 21.1523ZM242.133 19.9643C243.447 19.9643 244.635 20.2703 245.697 20.8823C246.759 21.4943 247.587 22.3403 248.181 23.4203C248.793 24.5003 249.099 25.7333 249.099 27.1193C249.099 28.5053 248.793 29.7473 248.181 30.8453C247.587 31.9253 246.759 32.7713 245.697 33.3833C244.635 33.9773 243.447 34.2743 242.133 34.2743C240.891 34.2743 239.766 33.9863 238.758 33.4103C237.75 32.8163 236.967 31.9973 236.409 30.9533V39.4043H235.059V20.0723H236.355V23.3933C236.913 22.3133 237.696 21.4763 238.704 20.8823C239.73 20.2703 240.873 19.9643 242.133 19.9643ZM242.052 33.0593C243.132 33.0593 244.104 32.8073 244.968 32.3033C245.832 31.7993 246.507 31.0973 246.993 30.1973C247.497 29.2973 247.749 28.2713 247.749 27.1193C247.749 25.9673 247.497 24.9413 246.993 24.0413C246.507 23.1413 245.832 22.4393 244.968 21.9353C244.104 21.4313 243.132 21.1793 242.052 21.1793C240.972 21.1793 240 21.4313 239.136 21.9353C238.29 22.4393 237.615 23.1413 237.111 24.0413C236.625 24.9413 236.382 25.9673 236.382 27.1193C236.382 28.2713 236.625 29.2973 237.111 30.1973C237.615 31.0973 238.29 31.7993 239.136 32.3033C240 32.8073 240.972 33.0593 242.052 33.0593ZM259.942 26.9033C262.012 27.2633 263.047 28.4243 263.047 30.3863C263.047 31.6103 262.597 32.5463 261.697 33.1943C260.815 33.8423 259.483 34.1663 257.701 34.1663H251.599V20.0723H257.539C259.105 20.0723 260.329 20.3873 261.211 21.0173C262.111 21.6293 262.561 22.5113 262.561 23.6633C262.561 24.4913 262.327 25.1843 261.859 25.7423C261.409 26.2823 260.77 26.6693 259.942 26.9033ZM252.922 26.4983H257.458C258.664 26.4983 259.591 26.2733 260.239 25.8233C260.887 25.3553 261.211 24.6893 261.211 23.8253C261.211 22.9433 260.887 22.2863 260.239 21.8543C259.609 21.4043 258.682 21.1793 257.458 21.1793H252.922V26.4983ZM257.674 33.0593C260.356 33.0593 261.697 32.1503 261.697 30.3323C261.697 29.3783 261.391 28.6763 260.779 28.2263C260.167 27.7763 259.204 27.5513 257.89 27.5513H252.922V33.0593H257.674ZM265.951 20.0723H267.301V32.0873L277.345 20.0723H278.533V34.1663H277.183V22.1513L267.139 34.1663H265.951V20.0723ZM288.162 34.2743C286.794 34.2743 285.57 33.9683 284.49 33.3563C283.41 32.7443 282.564 31.8983 281.952 30.8183C281.34 29.7203 281.034 28.4873 281.034 27.1193C281.034 25.7333 281.34 24.5003 281.952 23.4203C282.564 22.3223 283.41 21.4763 284.49 20.8823C285.57 20.2703 286.794 19.9643 288.162 19.9643C289.296 19.9643 290.322 20.1893 291.24 20.6393C292.176 21.0713 292.932 21.7103 293.508 22.5563L292.509 23.2853C292.005 22.5833 291.375 22.0613 290.619 21.7193C289.881 21.3593 289.062 21.1793 288.162 21.1793C287.064 21.1793 286.074 21.4313 285.192 21.9353C284.328 22.4213 283.644 23.1143 283.14 24.0143C282.654 24.9143 282.411 25.9493 282.411 27.1193C282.411 28.2893 282.654 29.3243 283.14 30.2243C283.644 31.1243 284.328 31.8263 285.192 32.3303C286.074 32.8163 287.064 33.0593 288.162 33.0593C289.062 33.0593 289.881 32.8883 290.619 32.5463C291.375 32.1863 292.005 31.6553 292.509 30.9533L293.508 31.6823C292.932 32.5283 292.176 33.1763 291.24 33.6263C290.322 34.0583 289.296 34.2743 288.162 34.2743Z" fill="#409932"/>
<g clip-path="url(#clip0)">
<path d="M24.4019 48.0478C22.6904 48.0478 20.9798 47.7028 19.3956 47.0138L11.8207 43.7209C9.08027 42.5289 6.1827 41.7739 3.20863 41.4766L0.721071 41.2278C0.311517 41.187 0 40.8425 0 40.4312V32.6281C0 32.4549 0.056348 32.2863 0.16034 32.148C0.346334 31.8992 4.8047 26.0748 11.615 27.5902C15.4453 28.4414 18.5293 30.0343 20.442 31.2208C21.8305 32.082 23.4582 32.5369 25.1491 32.5369H32.724C34.0296 32.5369 35.1772 33.2278 35.819 34.264L42.343 26.7477C43.6079 25.0587 45.6772 24.0243 47.8436 24.0243H48.331C48.6017 24.0243 48.8537 24.1608 49.0012 24.3871C49.1492 24.6134 49.1726 24.8997 49.064 25.1471L43.1635 38.557C41.8734 41.4899 39.2466 43.7053 36.1374 44.4827L35.0993 44.742L29.0604 47.1576C27.5743 47.7518 25.9879 48.0478 24.4019 48.0478ZM1.60157 39.7064L3.36805 39.8832C6.50751 40.1971 9.56633 40.9946 12.4598 42.2526L20.0342 45.5455C22.6977 46.7036 25.7694 46.749 28.4663 45.6701L34.5546 43.2348C34.5885 43.2215 34.6229 43.2105 34.6581 43.2018L35.7489 42.9288C38.3817 42.2705 40.6058 40.395 41.6975 37.912L47.0794 25.6808C45.7014 25.8837 44.4334 26.6263 43.5886 27.7524L36.3614 36.0818C36.3623 36.113 36.3628 36.1437 36.3628 36.1753C36.3628 38.1814 34.7305 39.8136 32.7244 39.8136H22.1558C20.7819 39.8136 19.424 40.034 18.1207 40.4683L17.8266 39.7215L17.5778 38.9606L17.6186 38.9473C19.0814 38.4599 20.6092 38.2121 22.1558 38.2121H32.7244C33.8473 38.2121 34.7617 37.2981 34.7617 36.1748C34.7617 35.0515 33.8477 34.1376 32.7244 34.1376H25.1495C23.1599 34.1376 21.2404 33.5993 19.5986 32.5809C17.7918 31.4599 14.8791 29.9559 11.2687 29.1528C6.11124 28.0089 2.40006 31.967 1.60202 32.9112V39.7064H1.60157Z" fill="#409932"/>
<path d="M31.532 23.8433C30.3006 23.8433 28.9198 23.4631 27.3998 22.7031C27.2156 22.6105 27.0736 22.4502 27.004 22.2564C26.9421 22.0828 25.5114 17.9675 27.7851 14.9243C29.4375 12.7121 32.5444 11.7157 37.0248 11.9653C37.4334 11.9878 37.7591 12.3153 37.7793 12.7249C37.7953 13.0428 38.1256 20.5472 34.299 23.0457C33.4854 23.5776 32.5609 23.8433 31.532 23.8433ZM28.4209 21.418C30.5241 22.4044 32.2054 22.501 33.424 21.7053C35.693 20.2233 36.1837 15.824 36.1956 13.5344C32.685 13.4487 30.2951 14.2399 29.0678 15.8822C27.6073 17.8379 28.1749 20.5279 28.4209 21.418Z" fill="#409932"/>
<path d="M19.2875 13.353C17.8678 13.353 16.2301 13.0488 14.8007 12.002C12.3764 10.2254 11.2623 6.84317 11.4886 1.9496C11.5078 1.54051 11.8322 1.21158 12.2413 1.1873C12.5876 1.1676 20.7851 0.730103 23.5434 4.87054C24.8279 6.79782 24.7226 9.32203 23.2314 12.3744C23.1407 12.56 22.9822 12.7034 22.7884 12.7744C22.6807 12.8142 21.1777 13.353 19.2875 13.353ZM22.5122 12.0231H22.52H22.5122ZM13.0645 2.76275C12.9953 6.68237 13.8964 9.3541 15.7467 10.7101C17.9622 12.3332 20.9871 11.6433 21.9381 11.3661C23.0262 9.00501 23.1182 7.11987 22.2112 5.75836C20.5253 3.22774 15.5814 2.73298 13.0645 2.76275Z" fill="#409932"/>
<path d="M25.5403 33.8563C25.5151 33.8563 25.4899 33.8549 25.4643 33.8527C25.0378 33.8123 24.7185 33.4436 24.74 33.0152C24.7872 32.0733 24.8678 31.18 24.9773 30.3334C25.3103 24.6675 25.1385 11.4729 16.7963 7.82262C16.3913 7.64533 16.2062 7.17347 16.3835 6.76804C16.5604 6.36353 17.0336 6.17891 17.4381 6.35574C22.3541 8.50659 25.4469 13.8615 26.38 21.8414C26.4639 22.5565 26.5266 23.2615 26.5734 23.9482C28.7705 18.3963 32.1317 16.4347 32.3318 16.3225C32.7167 16.1049 33.205 16.2432 33.4222 16.6276C33.6379 17.0124 33.5023 17.4994 33.1189 17.7165C33.0341 17.766 27.8799 20.8592 26.5862 30.398C26.4877 32.0298 26.3457 33.0702 26.3324 33.1655C26.277 33.565 25.9357 33.8563 25.5403 33.8563Z" fill="#409932"/>
</g>
<defs>
<clipPath id="clip0">
<rect width="49.1315" height="49.1315" fill="white"/>
</clipPath>
</defs>
</svg>
