<svg width="92" height="92" viewBox="0 0 92 92" fill="none" xmlns="http://www.w3.org/2000/svg">
<g clip-path="url(#clip0)">
<path d="M25.922 18.03L17.6043 26.4939C17.2157 26.8892 17.2219 27.5206 17.6169 27.9083C18.0111 28.2952 18.6438 28.2899 19.0313 27.8958L22.4888 24.3774L30.6723 32.4197L24.1375 39.0965C23.7535 39.4894 23.7579 40.1236 24.153 40.5106C24.5475 40.8966 25.1807 40.8899 25.5672 40.4951L27.9489 38.0617L50.6667 60.3862C51.5193 61.2235 52.6463 61.6789 53.8402 61.6684C55.0351 61.6582 56.1535 61.1834 56.9903 60.331L58.0149 59.2886L70.395 71.4542C70.7891 71.8411 71.4219 71.8358 71.8093 71.4417C71.9367 71.3118 72.0214 71.1561 72.0638 70.9921C72.1504 70.6574 72.0605 70.2871 71.7969 70.0273L59.417 57.862L60.3741 56.888C60.9547 56.2972 61.3419 55.5874 61.5358 54.8377C61.9313 53.3084 61.5233 51.6136 60.318 50.4279L37.6486 28.1511L40.0883 25.6583C40.2146 25.5291 40.299 25.3739 40.3413 25.2103C40.428 24.8751 40.3385 24.504 40.0728 24.2442C39.6783 23.8582 39.0451 23.8649 38.6586 24.2597L32.0715 30.9901L23.891 22.9507L27.349 19.4319C27.4764 19.302 27.5609 19.1463 27.6034 18.9823C27.6899 18.6476 27.601 18.2776 27.3364 18.0175C26.9422 17.6306 26.3094 17.6359 25.922 18.03ZM42.6806 35.9L39.2228 39.419C38.8351 39.8144 38.8421 40.4462 39.2353 40.8334C39.6295 41.2202 40.2624 41.2145 40.6497 40.8209L44.1072 37.302L46.9182 40.0641L43.4607 43.5829C43.0729 43.9788 43.08 44.6101 43.4732 44.9973C43.8674 45.3842 44.5003 45.3784 44.8876 44.9848L48.3449 41.4662L51.09 44.1638L47.6322 47.6838C47.2434 48.0795 47.2515 48.7115 47.6447 49.0982C48.0389 49.485 48.6718 49.4793 49.0591 49.0857L52.5166 45.5657L55.4217 48.4204L51.9624 51.9397C51.5749 52.3342 51.5798 52.9664 51.975 53.3535C52.369 53.7409 53.0019 53.7356 53.3892 53.3416L56.8484 49.8224L58.9161 51.8543C59.9243 52.8473 59.9416 54.4773 58.9473 55.4861L55.5632 58.9296C55.1006 59.4005 54.4829 59.6629 53.8227 59.6687C53.1627 59.674 52.5399 59.4222 52.0686 58.9593L29.3643 36.648L36.2794 29.6098L42.6806 35.9Z" fill="black"/>
</g>
<path d="M45.6141 7.46039C52.3915 7.46039 59.1797 9.38416 65.2448 13.0242C69.0917 15.3388 72.5484 18.2477 75.485 21.6445L65.3526 21.3102C64.1626 21.2705 63.166 22.2037 63.1269 23.3944C63.0879 24.5844 64.0204 25.5816 65.2111 25.62L79.2301 26.083C80.0353 26.4145 80.9612 26.2292 81.577 25.6126C82.1923 24.9961 82.3762 24.0702 82.0433 23.265L81.5818 9.2494C81.5548 8.05875 80.5676 7.11539 79.377 7.14167C78.187 7.16862 77.2423 8.15578 77.2693 9.34576C77.2693 9.36193 77.2693 9.37675 77.2706 9.39225L77.5374 17.4782C74.5713 14.3085 71.1812 11.564 67.4637 9.32487C60.7288 5.28392 53.1732 3.14789 45.6141 3.14789C33.5391 3.14789 22.4061 8.1268 14.2703 17.1669C7.06307 25.1753 2.76 35.9545 2.76 46.002C2.76 47.1926 3.72492 48.1582 4.91625 48.1582C6.10758 48.1582 7.0725 47.1926 7.0725 46.002C7.0725 36.9909 10.9612 27.2898 17.4757 20.0522C24.7841 11.9333 34.7763 7.46039 45.6141 7.46039V7.46039Z" fill="black"/>
<path d="M86.8537 43.8458C85.6624 43.8458 84.6975 44.8107 84.6975 46.0021C84.6975 55.0125 80.8088 64.7143 74.2943 71.9525C66.9859 80.0715 56.9937 84.543 46.1559 84.543C39.3785 84.543 32.5904 82.6206 26.5252 78.9805C22.6784 76.6653 19.2216 73.7564 16.2851 70.3603L26.4174 70.6945C27.6074 70.7329 28.604 69.7996 28.6431 68.6097C28.6822 67.4197 27.7496 66.4231 26.5589 66.3833L12.5399 65.9211C11.7347 65.5896 10.8089 65.7755 10.193 66.3914C9.57779 67.008 9.39384 67.9331 9.72671 68.7384L10.1883 82.754C10.2152 83.9453 11.2024 84.8893 12.393 84.8624C13.583 84.8361 14.5277 83.849 14.5008 82.6583C14.5008 82.6428 14.5008 82.628 14.4994 82.6118L14.2326 74.5259C17.1988 77.6962 20.5888 80.4394 24.3063 82.6799C31.0412 86.7215 38.5969 88.8568 46.1559 88.8568C58.2309 88.8568 69.3639 83.8786 77.4997 74.8385C84.7069 66.8294 89.01 56.0502 89.01 46.0021C89.01 44.8107 88.0451 43.8458 86.8537 43.8458V43.8458Z" fill="black"/>
<defs>
<clipPath id="clip0">
<rect width="64" height="64" fill="white" transform="translate(7 66.9614) rotate(-75.5)"/>
</clipPath>
</defs>
</svg>
