<svg id="Capa_1" enable-background="new 0 0 512.002 512.002" height="512" viewBox="0 0 512.002 512.002" width="512" xmlns="http://www.w3.org/2000/svg"><g><path d="m372.002 497h15v15h-15z"/><path d="m477.001 28.481v-5.981c0-12.406-10.094-22.5-22.5-22.5h-315.001c-12.406 0-22.499 10.094-22.499 22.5v4.775h-74.749c-12.406 0-22.5 10.094-22.5 22.5s10.094 22.5 22.5 22.5h47.864l7.499 15h20.041l27.942 305.297c-29.233 3.998-51.834 29.116-51.834 59.43 0 32.929 26.667 59.738 59.539 59.988v.01h.384c.026 0 .051.002.077.002s.051-.002.077-.002h203.16v-15h-163.612c12.48-11.003 20.375-27.092 20.375-44.998 0-30.756-23.265-56.167-53.118-59.593l-27.927-305.134h328.713l-29.411 401.678c-.285 3.9-3.018 8.047-7.52 8.047h-22.499v15h22.499c11.9 0 21.564-9.438 22.48-21.952l29.569-403.825c9.093-2.889 15.7-11.41 15.7-21.447v-15c0-9.87-6.391-18.27-15.249-21.295zm-278.237 423.521c0 24.788-20.145 44.956-44.923 44.998h-.154c-24.778-.042-44.923-20.21-44.923-44.998 0-24.813 20.187-45 45-45s45 20.186 45 45zm278.486-387.227c0 4.136-3.364 7.5-7.5 7.5h-362.864l-7.499-15h-57.135c-4.136 0-7.5-3.364-7.5-7.5s3.364-7.5 7.5-7.5h119.748v-15h-29.999v-4.775c0-4.136 3.364-7.5 7.499-7.5h315.001c4.136 0 7.5 3.364 7.5 7.5v4.775h-285v15h292.749c4.136 0 7.5 3.364 7.5 7.5z"/><path d="m123.764 452.002c0 16.542 13.458 30 30 30s30-13.458 30-30-13.458-30-30-30-30 13.458-30 30zm45 0c0 8.271-6.729 15-15 15s-15-6.729-15-15 6.729-15 15-15 15 6.728 15 15z"/><path d="m427.458 133.227h15v14.999h-15z" transform="matrix(.073 -.997 .997 .073 262.888 564.264)"/><path d="m429.648 103.307h15v14.999h-15z" transform="matrix(.073 -.997 .997 .073 294.704 538.692)"/><path d="m304.345 273.737c-2.997-55.233-48.88-99.246-104.844-99.246h-7.5v39.998c0 55.372 43.09 100.87 97.504 104.726l.001 7.25c-.003.349-.005.696-.005 1.046l.01 39.997h7.499c57.893 0 104.991-47.099 104.991-104.99v-39.998h-7.5c-38.257 0-71.8 20.564-90.156 51.217zm-97.344-59.248v-24.688c46.124 3.824 82.494 42.587 82.5 89.683l.001 10.01-36.208-48.278-12 9 39.615 52.821c-41.974-7.61-73.908-44.42-73.908-88.548zm180 48.029c0 44.132-31.936 80.946-73.911 88.55l39.617-52.823-12-9-36.2 48.267-.001-10.969c.496-46.656 36.683-84.915 82.495-88.713z"/><path d="m352.707 268.244h15v15h-15z" transform="matrix(.6 -.8 .8 .6 -76.513 398.463)"/><path d="m226.294 220.216h15v15h-15z" transform="matrix(.8 -.6 .6 .8 -89.871 185.82)"/></g></svg>