<svg id="Capa_1" enable-background="new 0 0 511.905 511.905" height="512" viewBox="0 0 511.905 511.905" width="512" xmlns="http://www.w3.org/2000/svg"><g><path d="m271.589 319.943c-21.702 0-39.358 17.656-39.358 39.358 0 21.703 17.656 39.359 39.358 39.359 21.703 0 39.359-17.656 39.359-39.359.001-21.702-17.655-39.358-39.359-39.358zm0 63.717c-13.432 0-24.358-10.928-24.358-24.359s10.927-24.358 24.358-24.358 24.359 10.927 24.359 24.358-10.927 24.359-24.359 24.359z"/><path d="m496.477 95.657h-14.113c-4.143 0-7.5 3.357-7.5 7.5s3.357 7.5 7.5 7.5h14.113c.236 0 .428.191.428.427v14.146c0 .235-.191.427-.428.427h-65.807c-2.419 0-4.69 1.167-6.099 3.135l-85.346 119.221 10.684-37.294c.408-1.425.618-2.87.647-4.305l66.305-92.622c1.406-1.963 3.686-3.135 6.1-3.135h27.44c4.143 0 7.5-3.357 7.5-7.5s-3.357-7.5-7.5-7.5h-27.44c-7.24 0-14.079 3.515-18.296 9.403l-62.121 86.777c-1.119-.684-2.314-1.232-3.567-1.632l-2.406-5.103c-5.181-10.987-13.493-19.98-24.04-26.008l-3.024-1.729c-2.266-1.294-4.091-3.323-5.14-5.714l-4.214-9.608c-6.859-15.641-20.15-27.516-36.463-32.578l-14.462-4.488-13.396-7.988c-3.556-2.12-8.161-.958-10.283 2.6s-.958 8.162 2.6 10.283l14.162 8.445c.51.304 1.053.546 1.618.722l15.314 4.753c12.156 3.772 22.061 12.621 27.173 24.277l4.214 9.608c2.333 5.318 6.395 9.834 11.435 12.713l3.022 1.728c7.174 4.099 12.938 10.055 16.829 17.286h-293.266c3.891-7.231 9.655-13.187 16.829-17.286l3.021-1.727c5.042-2.88 9.104-7.396 11.437-12.714l4.214-9.608c5.112-11.656 15.017-20.505 27.174-24.277l15.312-4.753c.565-.176 1.108-.418 1.617-.722l20.458-12.198c21.521-12.834 47.682-16.209 71.776-9.259 3.983 1.146 8.138-1.146 9.285-5.127 1.148-3.98-1.147-8.138-5.127-9.285-28.07-8.097-58.547-4.164-83.617 10.788l-19.691 11.741-14.46 4.488c-16.313 5.062-29.604 16.938-36.464 32.578l-4.214 9.608c-1.049 2.391-2.874 4.42-5.142 5.715l-3.021 1.728c-10.547 6.027-18.86 15.021-24.041 26.008l-2.406 5.103c-3.234 1.035-6.094 3.042-8.212 5.852-3.187 4.229-4.178 9.572-2.72 14.661l11.816 41.249c1.141 3.981 5.288 6.28 9.275 5.145 3.981-1.141 6.285-5.293 5.145-9.275l-11.816-41.249c-.194-.679.044-1.191.278-1.502s.662-.682 1.367-.682h317.121c.705 0 1.133.371 1.367.682s.473.823.278 1.502l-25.534 89.13c-11.205-6.787-24.337-10.699-38.366-10.699-33.324 0-61.591 22.059-70.971 52.341h-122.52c-15.048 0-28.451-10.103-32.595-24.568l-9.664-33.731c-1.142-3.982-5.297-6.285-9.275-5.145-3.982 1.141-6.285 5.294-5.145 9.275l9.664 33.731c5.977 20.865 25.31 35.438 47.015 35.438h119.545c-.213 2.287-.335 4.599-.335 6.94 0 40.959 33.322 74.282 74.281 74.282s74.282-33.323 74.282-74.282c0-21.144-8.895-40.238-23.122-53.778l4.168-14.547 107.607-150.318h61.952c8.507 0 15.428-6.921 15.428-15.427v-14.146c.001-8.507-6.92-15.427-15.427-15.427zm-165.605 263.644c0 32.688-26.594 59.282-59.282 59.282s-59.281-26.594-59.281-59.282 26.594-59.281 59.281-59.281c32.688 0 59.282 26.593 59.282 59.281z"/><path d="m86.531 159.698c-4.143 0-7.5 3.357-7.5 7.5s3.357 7.5 7.5 7.5h5.985c4.143 0 7.5-3.357 7.5-7.5s-3.357-7.5-7.5-7.5z"/><path d="m157.973 139.63c-4.143 0-7.5 3.357-7.5 7.5s3.357 7.5 7.5 7.5h6.719c4.143 0 7.5-3.357 7.5-7.5s-3.357-7.5-7.5-7.5z"/><path d="m200.604 114.28c-4.143 0-7.5 3.357-7.5 7.5s3.357 7.5 7.5 7.5h5.985c4.143 0 7.5-3.357 7.5-7.5s-3.357-7.5-7.5-7.5z"/><path d="m242.853 174.698c4.143 0 7.5-3.357 7.5-7.5s-3.357-7.5-7.5-7.5h-6.337c-4.143 0-7.5 3.357-7.5 7.5s3.357 7.5 7.5 7.5z"/></g></svg>