<?xml version="1.0"?>
<svg xmlns="http://www.w3.org/2000/svg" id="outline" viewBox="0 0 512 512" width="512" height="512"><path d="M56,95.229v33.542A23.255,23.255,0,0,0,79.229,152H88V457.377A38.666,38.666,0,0,0,126.623,496H385.377A38.666,38.666,0,0,0,424,457.377V152h8.771A23.255,23.255,0,0,0,456,128.771V95.229A23.255,23.255,0,0,0,432.771,72H350.035l-9.843-34.446A29.842,29.842,0,0,0,311.618,16H200.382a29.842,29.842,0,0,0-28.574,21.553L161.965,72H79.229A23.255,23.255,0,0,0,56,95.229ZM408,457.377A22.648,22.648,0,0,1,385.377,480H126.623A22.648,22.648,0,0,1,104,457.377V456H216V440H200V410.1a119.786,119.786,0,0,0,112,0V440h16V399.939a120.928,120.928,0,0,0,32-36.123V440h16V176H360v68.184a120.928,120.928,0,0,0-32-36.123V176H312v21.9a119.786,119.786,0,0,0-112,0V176H184v32.061a120.928,120.928,0,0,0-32,36.123V176H136V440H104V152H408ZM152,363.816a120.928,120.928,0,0,0,32,36.123V440H152ZM256,200A104,104,0,1,1,152,304,104.118,104.118,0,0,1,256,200ZM440,95.229v33.542A7.236,7.236,0,0,1,432.771,136H79.229A7.236,7.236,0,0,1,72,128.771V95.229A7.236,7.236,0,0,1,79.229,88H432.771A7.236,7.236,0,0,1,440,95.229ZM219.1,72l2.667-8h68.468l2.667,8ZM187.192,41.948A13.775,13.775,0,0,1,200.382,32H311.618a13.775,13.775,0,0,1,13.19,9.949L333.394,72H309.767L303.59,53.47A8,8,0,0,0,296,48H216a8,8,0,0,0-7.59,5.47L202.233,72H178.606Z"/><path d="M214.435,288.04A48.047,48.047,0,0,0,168,336h16a32.052,32.052,0,0,1,24.53-31.111,47.99,47.99,0,0,0,31.392,52.333A31.924,31.924,0,0,1,216,368v16a47.991,47.991,0,0,0,40-21.506A47.991,47.991,0,0,0,296,384V368a31.924,31.924,0,0,1-23.922-10.778,47.99,47.99,0,0,0,31.392-52.333A32.052,32.052,0,0,1,328,336h16a48.047,48.047,0,0,0-46.435-47.96l-.011-.02a48.08,48.08,0,0,0-7.613-57.961l-11.314,11.314a32.038,32.038,0,0,1,7.529,33.319,47.872,47.872,0,0,0-60.312,0,32.038,32.038,0,0,1,7.529-33.319l-11.314-11.314a48.08,48.08,0,0,0-7.613,57.961ZM224,312a31.972,31.972,0,0,1,.73-6.78,31.974,31.974,0,0,1,22.54,37.56A32.052,32.052,0,0,1,224,312Zm40.73,30.78a31.974,31.974,0,0,1,22.54-37.56,31.974,31.974,0,0,1-22.54,37.56Zm12.414-54.77a32.038,32.038,0,0,1-42.288,0,31.912,31.912,0,0,1,42.288,0Z"/><rect x="232" y="440" width="16" height="16"/></svg>
